<svg width="960" height="525" viewBox="0 0 960 525" fill="none" xmlns="http://www.w3.org/2000/svg">
<path d="M393.57 73L393.429 72.3717C389.803 54.9184 376.141 41.2699 358.57 37.5C376.141 33.7301 389.803 20.0467 393.429 2.62832L393.57 2L393.711 2.62832C397.338 20.0816 411 33.7301 428.57 37.5C411 41.2699 397.338 54.9533 393.711 72.3717L393.57 73Z" fill="#31325C"/>
<path d="M803.932 2.19922H284.044V521.99H803.932V2.19922Z" stroke="#31325C" stroke-width="4" stroke-miterlimit="10"/>
<path d="M355.328 2.19922V521.99" stroke="#31325C" stroke-width="4" stroke-miterlimit="10"/>
<path d="M430.379 2.19922V521.99" stroke="#31325C" stroke-width="4" stroke-miterlimit="10"/>
<path d="M505.429 2.19922V521.99" stroke="#31325C" stroke-width="4" stroke-miterlimit="10"/>
<path d="M580.452 2.19922V521.99" stroke="#31325C" stroke-width="4" stroke-miterlimit="10"/>
<path d="M655.503 2.19922V521.99" stroke="#31325C" stroke-width="4" stroke-miterlimit="10"/>
<path d="M730.553 2.19922V521.99" stroke="#31325C" stroke-width="4" stroke-miterlimit="10"/>
<path d="M802.898 74.5312H282.983" stroke="#31325C" stroke-width="4" stroke-miterlimit="10"/>
<path d="M802.898 149.566H282.983" stroke="#31325C" stroke-width="4" stroke-miterlimit="10"/>
<path d="M802.898 224.576H282.983" stroke="#31325C" stroke-width="4" stroke-miterlimit="10"/>
<path d="M802.898 299.613H282.983" stroke="#31325C" stroke-width="4" stroke-miterlimit="10"/>
<path d="M802.898 374.648H282.983" stroke="#31325C" stroke-width="4" stroke-miterlimit="10"/>
<path d="M802.898 449.658H282.983" stroke="#31325C" stroke-width="4" stroke-miterlimit="10"/>
<path d="M767.57 372L767.433 371.345C763.796 353.673 750.139 339.824 732.57 336C750.139 332.176 763.796 318.327 767.433 300.655L767.57 300L767.708 300.655C771.345 318.327 785.002 332.176 802.57 336C785.002 339.824 771.345 353.673 767.708 371.345L767.57 372Z" fill="#31325C"/>
<g filter="url(#filter0_in_2570_5127)">
<rect x="424.57" y="298" width="283" height="152" transform="rotate(-180 424.57 298)" fill="#FF643C"/>
</g>
<path d="M505.482 73.2578H505.614C588.488 73.2578 655.767 140.525 655.767 223.383V522.175H355.302V223.383C355.302 140.525 422.582 73.2578 505.455 73.2578H505.482Z" fill="#181A26" stroke="#828BF0" stroke-width="4" stroke-miterlimit="10"/>
<g filter="url(#filter1_n_2570_5127)">
<path d="M655.927 449.393H355.249V522.175H655.927V449.393Z" fill="#828BF0"/>
<path d="M655.57 300H505.57V383H655.57V300Z" fill="#828BF0"/>
<path d="M655.927 374.861H430.379V449.632H655.927V374.861Z" fill="#828BF0"/>
<path d="M655.57 225H580.57V312H655.57V225Z" fill="#828BF0"/>
<mask id="mask0_2570_5127" style="mask-type:luminance" maskUnits="userSpaceOnUse" x="355" y="73" width="301" height="450">
<path d="M505.482 73.2578H505.614C588.488 73.2578 655.767 140.525 655.767 223.383V522.175H355.302V223.383C355.302 140.525 422.582 73.2578 505.455 73.2578H505.482Z" fill="white"/>
</mask>
<g mask="url(#mask0_2570_5127)">
<path d="M771.445 449.393H470.768V522.175H771.445V449.393Z" fill="#7079D9"/>
<path d="M771.57 300H620.57V383H771.57V300Z" fill="#7079D9"/>
<path d="M771.446 374.861H545.897V449.632H771.446V374.861Z" fill="#7079D9"/>
</g>
</g>
<g filter="url(#filter2_dn_2570_5127)">
<path d="M505.296 297.2L500.868 285.215C491.108 258.833 470.317 238.046 443.93 228.289L431.943 223.861L443.93 219.433C470.317 209.675 491.108 188.888 500.868 162.506L505.296 150.521L509.725 162.506C519.484 188.888 540.275 209.675 566.662 219.433L578.649 223.861L566.662 228.289C540.275 238.046 519.484 258.833 509.725 285.215L505.296 297.2Z" fill="url(#paint0_linear_2570_5127)"/>
</g>
<path d="M505.482 73.2578H505.614C588.488 73.2578 655.767 140.525 655.767 223.383V522.175H355.302V223.383C355.302 140.525 422.582 73.2578 505.455 73.2578H505.482Z" stroke="#595A99" stroke-width="4" stroke-miterlimit="10"/>
<g filter="url(#filter3_n_2570_5127)">
<g filter="url(#filter4_i_2570_5127)">
<rect x="655.57" y="376" width="304" height="147" fill="#444CE7"/>
</g>
</g>
<rect x="1.07031" y="5.5" width="140" height="140" fill="#FF6BFF" stroke="#FF6BFF"/>
<mask id="path-30-inside-1_2570_5127" fill="white">
<path d="M54.2264 106.578L51.3045 109.5L48.2498 106.578L41.4764 99.8047L38.5545 96.75L41.4764 93.8281L90.7498 44.5547L93.8045 41.5L96.7264 44.5547L103.5 51.3281L106.555 54.25L103.5 57.3047L54.2264 106.578ZM100.445 54.25L93.8045 47.6094L79.0623 62.2188L85.8358 68.8594L100.445 54.25ZM51.3045 103.523L82.9139 71.9141L76.1405 65.1406L44.5311 96.75L51.3045 103.523ZM67.7733 42.0312V43.625V46.2812H70.4295H72.0233V49.6016H70.4295H67.7733V52.125V53.8516H64.453V52.125V49.6016H61.9295H60.203V46.2812H61.9295H64.453V43.625V42.0312H67.7733ZM51.3045 52.125V58.5H57.6795H59.8045V62.75H57.6795H51.3045V69.125V71.25H47.0545V69.125V62.75H40.6795H38.5545V58.5H40.6795H47.0545V52.125V50H51.3045V52.125ZM98.0545 86.125V92.5H104.43H106.555V96.75H104.43H98.0545V103.125V105.25H93.8045V103.125V96.75H87.4295H85.3045V92.5H87.4295H93.8045V86.125V84H98.0545V86.125Z"/>
</mask>
<path d="M54.2264 106.578L51.3045 109.5L48.2498 106.578L41.4764 99.8047L38.5545 96.75L41.4764 93.8281L90.7498 44.5547L93.8045 41.5L96.7264 44.5547L103.5 51.3281L106.555 54.25L103.5 57.3047L54.2264 106.578ZM100.445 54.25L93.8045 47.6094L79.0623 62.2188L85.8358 68.8594L100.445 54.25ZM51.3045 103.523L82.9139 71.9141L76.1405 65.1406L44.5311 96.75L51.3045 103.523ZM67.7733 42.0312V43.625V46.2812H70.4295H72.0233V49.6016H70.4295H67.7733V52.125V53.8516H64.453V52.125V49.6016H61.9295H60.203V46.2812H61.9295H64.453V43.625V42.0312H67.7733ZM51.3045 52.125V58.5H57.6795H59.8045V62.75H57.6795H51.3045V69.125V71.25H47.0545V69.125V62.75H40.6795H38.5545V58.5H40.6795H47.0545V52.125V50H51.3045V52.125ZM98.0545 86.125V92.5H104.43H106.555V96.75H104.43H98.0545V103.125V105.25H93.8045V103.125V96.75H87.4295H85.3045V92.5H87.4295H93.8045V86.125V84H98.0545V86.125Z" fill="#141414"/>
<path d="M51.3045 109.5L50.6133 110.223L51.3201 110.899L52.0116 110.207L51.3045 109.5ZM48.2498 106.578L47.5427 107.285L47.5506 107.293L47.5586 107.301L48.2498 106.578ZM41.4764 99.8047L40.7538 100.496L40.7614 100.504L40.7693 100.512L41.4764 99.8047ZM38.5545 96.75L37.8474 96.0429L37.1559 96.7345L37.8319 97.4412L38.5545 96.75ZM93.8045 41.5L94.5272 40.8088L93.8204 40.0699L93.0974 40.7929L93.8045 41.5ZM96.7264 44.5547L96.0038 45.2459L96.0114 45.2539L96.0193 45.2618L96.7264 44.5547ZM103.5 51.3281L102.793 52.0352L102.801 52.0431L102.809 52.0508L103.5 51.3281ZM106.555 54.25L107.262 54.9571L107.985 54.2341L107.246 53.5274L106.555 54.25ZM100.445 54.25L101.152 54.9571L101.859 54.25L101.152 53.5429L100.445 54.25ZM93.8045 47.6094L94.5116 46.9023L93.8077 46.1984L93.1006 46.8991L93.8045 47.6094ZM79.0623 62.2188L78.3584 61.5084L77.6378 62.2226L78.3623 62.9328L79.0623 62.2188ZM85.8358 68.8594L85.1357 69.5734L85.8428 70.2666L86.5429 69.5665L85.8358 68.8594ZM51.3045 103.523L50.5974 104.231L51.3045 104.938L52.0116 104.231L51.3045 103.523ZM82.9139 71.9141L83.621 72.6212L84.3281 71.9141L83.621 71.207L82.9139 71.9141ZM76.1405 65.1406L76.8476 64.4335L76.1405 63.7264L75.4334 64.4335L76.1405 65.1406ZM44.5311 96.75L43.824 96.0429L43.1169 96.75L43.824 97.4571L44.5311 96.75ZM67.7733 42.0312H68.7733V41.0312H67.7733V42.0312ZM67.7733 46.2812H66.7733V47.2812H67.7733V46.2812ZM72.0233 46.2812H73.0233V45.2812H72.0233V46.2812ZM72.0233 49.6016V50.6016H73.0233V49.6016H72.0233ZM67.7733 49.6016V48.6016H66.7733V49.6016H67.7733ZM67.7733 53.8516V54.8516H68.7733V53.8516H67.7733ZM64.453 53.8516H63.453V54.8516H64.453V53.8516ZM64.453 49.6016H65.453V48.6016H64.453V49.6016ZM60.203 49.6016H59.203V50.6016H60.203V49.6016ZM60.203 46.2812V45.2812H59.203V46.2812H60.203ZM64.453 46.2812V47.2812H65.453V46.2812H64.453ZM64.453 42.0312V41.0312H63.453V42.0312H64.453ZM51.3045 58.5H50.3045V59.5H51.3045V58.5ZM59.8045 58.5H60.8045V57.5H59.8045V58.5ZM59.8045 62.75V63.75H60.8045V62.75H59.8045ZM51.3045 62.75V61.75H50.3045V62.75H51.3045ZM51.3045 71.25V72.25H52.3045V71.25H51.3045ZM47.0545 71.25H46.0545V72.25H47.0545V71.25ZM47.0545 62.75H48.0545V61.75H47.0545V62.75ZM38.5545 62.75H37.5545V63.75H38.5545V62.75ZM38.5545 58.5V57.5H37.5545V58.5H38.5545ZM47.0545 58.5V59.5H48.0545V58.5H47.0545ZM47.0545 50V49H46.0545V50H47.0545ZM51.3045 50H52.3045V49H51.3045V50ZM98.0545 92.5H97.0545V93.5H98.0545V92.5ZM106.555 92.5H107.555V91.5H106.555V92.5ZM106.555 96.75V97.75H107.555V96.75H106.555ZM98.0545 96.75V95.75H97.0545V96.75H98.0545ZM98.0545 105.25V106.25H99.0545V105.25H98.0545ZM93.8045 105.25H92.8045V106.25H93.8045V105.25ZM93.8045 96.75H94.8045V95.75H93.8045V96.75ZM85.3045 96.75H84.3045V97.75H85.3045V96.75ZM85.3045 92.5V91.5H84.3045V92.5H85.3045ZM93.8045 92.5V93.5H94.8045V92.5H93.8045ZM93.8045 84V83H92.8045V84H93.8045ZM98.0545 84H99.0545V83H98.0545V84ZM54.2264 106.578L53.5193 105.871L50.5974 108.793L51.3045 109.5L52.0116 110.207L54.9335 107.285L54.2264 106.578ZM51.3045 109.5L51.9958 108.777L48.9411 105.855L48.2498 106.578L47.5586 107.301L50.6133 110.223L51.3045 109.5ZM48.2498 106.578L48.957 105.871L42.1835 99.0976L41.4764 99.8047L40.7693 100.512L47.5427 107.285L48.2498 106.578ZM41.4764 99.8047L42.1991 99.1135L39.2772 96.0588L38.5545 96.75L37.8319 97.4412L40.7538 100.496L41.4764 99.8047ZM38.5545 96.75L39.2616 97.4571L42.1835 94.5352L41.4764 93.8281L40.7693 93.121L37.8474 96.0429L38.5545 96.75ZM41.4764 93.8281L42.1835 94.5352L91.457 45.2618L90.7498 44.5547L90.0427 43.8476L40.7693 93.121L41.4764 93.8281ZM90.7498 44.5547L91.457 45.2618L94.5116 42.2071L93.8045 41.5L93.0974 40.7929L90.0427 43.8476L90.7498 44.5547ZM93.8045 41.5L93.0819 42.1912L96.0038 45.2459L96.7264 44.5547L97.4491 43.8635L94.5272 40.8088L93.8045 41.5ZM96.7264 44.5547L96.0193 45.2618L102.793 52.0352L103.5 51.3281L104.207 50.621L97.4335 43.8476L96.7264 44.5547ZM103.5 51.3281L102.809 52.0508L105.863 54.9726L106.555 54.25L107.246 53.5274L104.191 50.6055L103.5 51.3281ZM106.555 54.25L105.847 53.5429L102.793 56.5976L103.5 57.3047L104.207 58.0118L107.262 54.9571L106.555 54.25ZM103.5 57.3047L102.793 56.5976L53.5193 105.871L54.2264 106.578L54.9335 107.285L104.207 58.0118L103.5 57.3047ZM100.445 54.25L101.152 53.5429L94.5116 46.9023L93.8045 47.6094L93.0974 48.3165L99.7381 54.9571L100.445 54.25ZM93.8045 47.6094L93.1006 46.8991L78.3584 61.5084L79.0623 62.2188L79.7663 62.9291L94.5084 48.3197L93.8045 47.6094ZM79.0623 62.2188L78.3623 62.9328L85.1357 69.5734L85.8358 68.8594L86.5359 68.1453L79.7624 61.5047L79.0623 62.2188ZM85.8358 68.8594L86.5429 69.5665L101.152 54.9571L100.445 54.25L99.7381 53.5429L85.1287 68.1523L85.8358 68.8594ZM51.3045 103.523L52.0116 104.231L83.621 72.6212L82.9139 71.9141L82.2068 71.207L50.5974 102.816L51.3045 103.523ZM82.9139 71.9141L83.621 71.207L76.8476 64.4335L76.1405 65.1406L75.4334 65.8477L82.2068 72.6212L82.9139 71.9141ZM76.1405 65.1406L75.4334 64.4335L43.824 96.0429L44.5311 96.75L45.2382 97.4571L76.8476 65.8477L76.1405 65.1406ZM44.5311 96.75L43.824 97.4571L50.5974 104.231L51.3045 103.523L52.0116 102.816L45.2382 96.0429L44.5311 96.75ZM67.7733 42.0312H66.7733V43.625H67.7733H68.7733V42.0312H67.7733ZM67.7733 43.625H66.7733V46.2812H67.7733H68.7733V43.625H67.7733ZM67.7733 46.2812V47.2812H70.4295V46.2812V45.2812H67.7733V46.2812ZM70.4295 46.2812V47.2812H72.0233V46.2812V45.2812H70.4295V46.2812ZM72.0233 46.2812H71.0233V49.6016H72.0233H73.0233V46.2812H72.0233ZM72.0233 49.6016V48.6016H70.4295V49.6016V50.6016H72.0233V49.6016ZM70.4295 49.6016V48.6016H67.7733V49.6016V50.6016H70.4295V49.6016ZM67.7733 49.6016H66.7733V52.125H67.7733H68.7733V49.6016H67.7733ZM67.7733 52.125H66.7733V53.8516H67.7733H68.7733V52.125H67.7733ZM67.7733 53.8516V52.8516H64.453V53.8516V54.8516H67.7733V53.8516ZM64.453 53.8516H65.453V52.125H64.453H63.453V53.8516H64.453ZM64.453 52.125H65.453V49.6016H64.453H63.453V52.125H64.453ZM64.453 49.6016V48.6016H61.9295V49.6016V50.6016H64.453V49.6016ZM61.9295 49.6016V48.6016H60.203V49.6016V50.6016H61.9295V49.6016ZM60.203 49.6016H61.203V46.2812H60.203H59.203V49.6016H60.203ZM60.203 46.2812V47.2812H61.9295V46.2812V45.2812H60.203V46.2812ZM61.9295 46.2812V47.2812H64.453V46.2812V45.2812H61.9295V46.2812ZM64.453 46.2812H65.453V43.625H64.453H63.453V46.2812H64.453ZM64.453 43.625H65.453V42.0312H64.453H63.453V43.625H64.453ZM64.453 42.0312V43.0312H67.7733V42.0312V41.0312H64.453V42.0312ZM51.3045 52.125H50.3045V58.5H51.3045H52.3045V52.125H51.3045ZM51.3045 58.5V59.5H57.6795V58.5V57.5H51.3045V58.5ZM57.6795 58.5V59.5H59.8045V58.5V57.5H57.6795V58.5ZM59.8045 58.5H58.8045V62.75H59.8045H60.8045V58.5H59.8045ZM59.8045 62.75V61.75H57.6795V62.75V63.75H59.8045V62.75ZM57.6795 62.75V61.75H51.3045V62.75V63.75H57.6795V62.75ZM51.3045 62.75H50.3045V69.125H51.3045H52.3045V62.75H51.3045ZM51.3045 69.125H50.3045V71.25H51.3045H52.3045V69.125H51.3045ZM51.3045 71.25V70.25H47.0545V71.25V72.25H51.3045V71.25ZM47.0545 71.25H48.0545V69.125H47.0545H46.0545V71.25H47.0545ZM47.0545 69.125H48.0545V62.75H47.0545H46.0545V69.125H47.0545ZM47.0545 62.75V61.75H40.6795V62.75V63.75H47.0545V62.75ZM40.6795 62.75V61.75H38.5545V62.75V63.75H40.6795V62.75ZM38.5545 62.75H39.5545V58.5H38.5545H37.5545V62.75H38.5545ZM38.5545 58.5V59.5H40.6795V58.5V57.5H38.5545V58.5ZM40.6795 58.5V59.5H47.0545V58.5V57.5H40.6795V58.5ZM47.0545 58.5H48.0545V52.125H47.0545H46.0545V58.5H47.0545ZM47.0545 52.125H48.0545V50H47.0545H46.0545V52.125H47.0545ZM47.0545 50V51H51.3045V50V49H47.0545V50ZM51.3045 50H50.3045V52.125H51.3045H52.3045V50H51.3045ZM98.0545 86.125H97.0545V92.5H98.0545H99.0545V86.125H98.0545ZM98.0545 92.5V93.5H104.43V92.5V91.5H98.0545V92.5ZM104.43 92.5V93.5H106.555V92.5V91.5H104.43V92.5ZM106.555 92.5H105.555V96.75H106.555H107.555V92.5H106.555ZM106.555 96.75V95.75H104.43V96.75V97.75H106.555V96.75ZM104.43 96.75V95.75H98.0545V96.75V97.75H104.43V96.75ZM98.0545 96.75H97.0545V103.125H98.0545H99.0545V96.75H98.0545ZM98.0545 103.125H97.0545V105.25H98.0545H99.0545V103.125H98.0545ZM98.0545 105.25V104.25H93.8045V105.25V106.25H98.0545V105.25ZM93.8045 105.25H94.8045V103.125H93.8045H92.8045V105.25H93.8045ZM93.8045 103.125H94.8045V96.75H93.8045H92.8045V103.125H93.8045ZM93.8045 96.75V95.75H87.4295V96.75V97.75H93.8045V96.75ZM87.4295 96.75V95.75H85.3045V96.75V97.75H87.4295V96.75ZM85.3045 96.75H86.3045V92.5H85.3045H84.3045V96.75H85.3045ZM85.3045 92.5V93.5H87.4295V92.5V91.5H85.3045V92.5ZM87.4295 92.5V93.5H93.8045V92.5V91.5H87.4295V92.5ZM93.8045 92.5H94.8045V86.125H93.8045H92.8045V92.5H93.8045ZM93.8045 86.125H94.8045V84H93.8045H92.8045V86.125H93.8045ZM93.8045 84V85H98.0545V84V83H93.8045V84ZM98.0545 84H97.0545V86.125H98.0545H99.0545V84H98.0545Z" fill="#FF6BFF" mask="url(#path-30-inside-1_2570_5127)"/>
<defs>
<filter id="filter0_in_2570_5127" x="97.5703" y="146" width="327" height="152" filterUnits="userSpaceOnUse" color-interpolation-filters="sRGB">
<feFlood flood-opacity="0" result="BackgroundImageFix"/>
<feBlend mode="normal" in="SourceGraphic" in2="BackgroundImageFix" result="shape"/>
<feColorMatrix in="SourceAlpha" type="matrix" values="0 0 0 0 0 0 0 0 0 0 0 0 0 0 0 0 0 0 127 0" result="hardAlpha"/>
<feMorphology radius="48" operator="dilate" in="SourceAlpha" result="effect1_innerShadow_2570_5127"/>
<feOffset dx="-184"/>
<feGaussianBlur stdDeviation="46"/>
<feComposite in2="hardAlpha" operator="arithmetic" k2="-1" k3="1"/>
<feColorMatrix type="matrix" values="0 0 0 0 0.936589 0 0 0 0 0.227623 0 0 0 0 0.936589 0 0 0 1 0"/>
<feBlend mode="normal" in2="shape" result="effect1_innerShadow_2570_5127"/>
<feTurbulence type="fractalNoise" baseFrequency="1 1" stitchTiles="stitch" numOctaves="3" result="noise" seed="8138" />
<feColorMatrix in="noise" type="luminanceToAlpha" result="alphaNoise" />
<feComponentTransfer in="alphaNoise" result="coloredNoise1">
<feFuncA type="discrete" tableValues="1 1 1 1 1 1 1 1 1 1 1 1 1 1 1 1 1 1 1 1 1 1 1 1 1 1 1 1 1 1 1 1 1 1 1 1 1 1 1 1 1 1 1 1 1 1 1 1 1 1 1 0 0 0 0 0 0 0 0 0 0 0 0 0 0 0 0 0 0 0 0 0 0 0 0 0 0 0 0 0 0 0 0 0 0 0 0 0 0 0 0 0 0 0 0 0 0 0 0 0 "/>
</feComponentTransfer>
<feComposite operator="in" in2="effect1_innerShadow_2570_5127" in="coloredNoise1" result="noise1Clipped" />
<feFlood flood-color="rgba(0, 0, 0, 0.15)" result="color1Flood" />
<feComposite operator="in" in2="noise1Clipped" in="color1Flood" result="color1" />
<feMerge result="effect2_noise_2570_5127">
<feMergeNode in="effect1_innerShadow_2570_5127" />
<feMergeNode in="color1" />
</feMerge>
</filter>
<filter id="filter1_n_2570_5127" x="355.249" y="225" width="300.678" height="297.176" filterUnits="userSpaceOnUse" color-interpolation-filters="sRGB">
<feFlood flood-opacity="0" result="BackgroundImageFix"/>
<feBlend mode="normal" in="SourceGraphic" in2="BackgroundImageFix" result="shape"/>
<feTurbulence type="fractalNoise" baseFrequency="1 1" stitchTiles="stitch" numOctaves="3" result="noise" seed="5226" />
<feColorMatrix in="noise" type="luminanceToAlpha" result="alphaNoise" />
<feComponentTransfer in="alphaNoise" result="coloredNoise1">
<feFuncA type="discrete" tableValues="1 1 1 1 1 1 1 1 1 1 1 1 1 1 1 1 1 1 1 1 1 1 1 1 1 1 1 1 1 1 1 1 1 1 1 1 1 1 1 1 1 1 1 1 1 1 1 1 1 1 1 0 0 0 0 0 0 0 0 0 0 0 0 0 0 0 0 0 0 0 0 0 0 0 0 0 0 0 0 0 0 0 0 0 0 0 0 0 0 0 0 0 0 0 0 0 0 0 0 0 "/>
</feComponentTransfer>
<feComposite operator="in" in2="shape" in="coloredNoise1" result="noise1Clipped" />
<feFlood flood-color="rgba(0, 0, 0, 0.15)" result="color1Flood" />
<feComposite operator="in" in2="noise1Clipped" in="color1Flood" result="color1" />
<feMerge result="effect1_noise_2570_5127">
<feMergeNode in="shape" />
<feMergeNode in="color1" />
</feMerge>
</filter>
<filter id="filter2_dn_2570_5127" x="405.943" y="124.521" width="206.706" height="206.678" filterUnits="userSpaceOnUse" color-interpolation-filters="sRGB">
<feFlood flood-opacity="0" result="BackgroundImageFix"/>
<feColorMatrix in="SourceAlpha" type="matrix" values="0 0 0 0 0 0 0 0 0 0 0 0 0 0 0 0 0 0 127 0" result="hardAlpha"/>
<feOffset dx="4" dy="4"/>
<feGaussianBlur stdDeviation="15"/>
<feComposite in2="hardAlpha" operator="out"/>
<feColorMatrix type="matrix" values="0 0 0 0 0.764706 0 0 0 0 1 0 0 0 0 0.384314 0 0 0 1 0"/>
<feBlend mode="normal" in2="BackgroundImageFix" result="effect1_dropShadow_2570_5127"/>
<feBlend mode="normal" in="SourceGraphic" in2="BackgroundImageFix" result="shape"/>
<feTurbulence type="fractalNoise" baseFrequency="1 1" stitchTiles="stitch" numOctaves="3" result="noise" seed="4882" />
<feColorMatrix in="noise" type="luminanceToAlpha" result="alphaNoise" />
<feComponentTransfer in="alphaNoise" result="coloredNoise1">
<feFuncA type="discrete" tableValues="1 1 1 1 1 1 1 1 1 1 1 1 1 1 1 1 1 1 1 1 1 1 1 1 1 1 1 1 1 1 1 1 1 1 1 1 1 1 1 1 1 1 1 1 1 1 1 1 1 1 1 0 0 0 0 0 0 0 0 0 0 0 0 0 0 0 0 0 0 0 0 0 0 0 0 0 0 0 0 0 0 0 0 0 0 0 0 0 0 0 0 0 0 0 0 0 0 0 0 0 "/>
</feComponentTransfer>
<feComposite operator="in" in2="shape" in="coloredNoise1" result="noise1Clipped" />
<feFlood flood-color="rgba(0, 0, 0, 0.1)" result="color1Flood" />
<feComposite operator="in" in2="noise1Clipped" in="color1Flood" result="color1" />
<feMerge result="effect2_noise_2570_5127">
<feMergeNode in="shape" />
<feMergeNode in="color1" />
</feMerge>
<feBlend mode="normal" in="effect2_noise_2570_5127" in2="effect1_dropShadow_2570_5127" result="effect2_noise_2570_5127"/>
</filter>
<filter id="filter3_n_2570_5127" x="655.57" y="376" width="304" height="147" filterUnits="userSpaceOnUse" color-interpolation-filters="sRGB">
<feFlood flood-opacity="0" result="BackgroundImageFix"/>
<feBlend mode="normal" in="SourceGraphic" in2="BackgroundImageFix" result="shape"/>
<feTurbulence type="fractalNoise" baseFrequency="1 1" stitchTiles="stitch" numOctaves="3" result="noise" seed="1216" />
<feColorMatrix in="noise" type="luminanceToAlpha" result="alphaNoise" />
<feComponentTransfer in="alphaNoise" result="coloredNoise1">
<feFuncA type="discrete" tableValues="1 1 1 1 1 1 1 1 1 1 1 1 1 1 1 1 1 1 1 1 1 1 1 1 1 1 1 1 1 1 1 1 1 1 1 1 1 1 1 1 1 1 1 1 1 1 1 1 1 1 1 0 0 0 0 0 0 0 0 0 0 0 0 0 0 0 0 0 0 0 0 0 0 0 0 0 0 0 0 0 0 0 0 0 0 0 0 0 0 0 0 0 0 0 0 0 0 0 0 0 "/>
</feComponentTransfer>
<feComposite operator="in" in2="shape" in="coloredNoise1" result="noise1Clipped" />
<feFlood flood-color="rgba(0, 0, 0, 0.15)" result="color1Flood" />
<feComposite operator="in" in2="noise1Clipped" in="color1Flood" result="color1" />
<feMerge result="effect1_noise_2570_5127">
<feMergeNode in="shape" />
<feMergeNode in="color1" />
</feMerge>
</filter>
<filter id="filter4_i_2570_5127" x="595.57" y="376" width="364" height="147" filterUnits="userSpaceOnUse" color-interpolation-filters="sRGB">
<feFlood flood-opacity="0" result="BackgroundImageFix"/>
<feBlend mode="normal" in="SourceGraphic" in2="BackgroundImageFix" result="shape"/>
<feColorMatrix in="SourceAlpha" type="matrix" values="0 0 0 0 0 0 0 0 0 0 0 0 0 0 0 0 0 0 127 0" result="hardAlpha"/>
<feMorphology radius="56" operator="dilate" in="SourceAlpha" result="effect1_innerShadow_2570_5127"/>
<feOffset dx="-256"/>
<feGaussianBlur stdDeviation="58"/>
<feComposite in2="hardAlpha" operator="arithmetic" k2="-1" k3="1"/>
<feColorMatrix type="matrix" values="0 0 0 0 0.203922 0 0 0 0 0.827451 0 0 0 0 0.6 0 0 0 1 0"/>
<feBlend mode="normal" in2="shape" result="effect1_innerShadow_2570_5127"/>
</filter>
<linearGradient id="paint0_linear_2570_5127" x1="465.851" y1="188.855" x2="538.474" y2="261.492" gradientUnits="userSpaceOnUse">
<stop offset="0.29" stop-color="white"/>
<stop offset="0.92" stop-color="#C3FF62"/>
</linearGradient>
</defs>
</svg>
